<?xml version="1.0" encoding="utf-8" ?><svg xmlns="http://www.w3.org/2000/svg" xmlns:xlink="http://www.w3.org/1999/xlink" width="816" height="816" viewBox="0 0 816 816"><path fill="#0C3B62" transform="matrix(1.632 0 0 1.632 -0.000488281 1.90735e-06)" d="M216.277 263.706C214.606 265.943 200.268 277.395 197.355 279.678C193.553 281.885 186.876 283.357 182.698 282.311C177.078 280.904 176.054 276.766 175.983 271.531C175.856 262.219 175.959 252.746 175.912 243.357L175.585 189.391L175.506 166.176C175.46 159.839 174.716 152.533 176.175 146.397C177.098 142.516 179.947 139.404 183.369 137.544C184.748 136.795 186.304 136.189 187.862 135.94C207.31 134.688 209.653 135.566 219.812 151.288L228.985 165.53L245.047 190.811C248.103 195.685 251.36 200.493 254.004 205.595C255.595 204.349 257.286 202.048 258.649 200.44C262.915 195.409 267.019 190.182 270.758 184.748C272.173 182.697 276.154 176.267 277.694 175.039C284.252 177.523 266.934 210.005 263.192 213.991C262.704 214.511 260.988 217.116 260.668 217.709C259.442 218.897 258.38 220.223 257.285 221.529C252.79 226.889 248.508 232.435 243.665 237.492C242.976 238.273 241.776 239.537 241.253 240.362C233.433 248.435 224.936 256.548 216.277 263.706ZM231.452 224.569C229.158 222.687 224.268 213.733 222.168 210.722C216.454 202.532 211.325 192.737 205.455 184.742C206.122 193.803 205.69 205.942 205.773 215.171C205.818 220.288 206.095 232.178 205.652 236.993C207.451 235.867 210.424 235.243 212.635 234.484C218.217 232.568 226.866 228.396 231.452 224.569Z"/><defs><linearGradient id="gradient_0" gradientUnits="userSpaceOnUse" x1="285.81909" y1="196.15939" x2="232.25285" y2="216.52405"><stop offset="0" stop-color="#FF9C15"/><stop offset="1" stop-color="#DC6F34"/></linearGradient></defs><path fill="url(#gradient_0)" transform="matrix(1.632 0 0 1.632 -0.000488281 1.90735e-06)" d="M254.004 205.595C255.595 204.349 257.286 202.048 258.649 200.44C262.915 195.409 267.019 190.182 270.758 184.748C272.173 182.697 276.154 176.267 277.694 175.039C284.252 177.523 266.934 210.005 263.192 213.991C262.704 214.511 260.988 217.116 260.668 217.709C259.442 218.897 258.38 220.223 257.285 221.529C252.79 226.889 248.508 232.435 243.665 237.492C243.786 236.831 244.532 235.813 244.559 235.356C244.668 233.481 235.714 225.312 235.115 223.51C235.007 223.184 235.061 222.549 235.041 222.186C241.318 217.453 248.675 211.275 254.004 205.595Z"/><defs><linearGradient id="gradient_1" gradientUnits="userSpaceOnUse" x1="243.20432" y1="232.23094" x2="220.98216" y2="242.629"><stop offset="0" stop-color="#ED6C30"/><stop offset="1" stop-color="#5A485D"/></linearGradient></defs><path fill="url(#gradient_1)" transform="matrix(1.632 0 0 1.632 -0.000488281 1.90735e-06)" d="M235.041 222.186C235.061 222.549 235.007 223.184 235.115 223.51C235.714 225.312 244.668 233.481 244.559 235.356C244.532 235.813 243.786 236.831 243.665 237.492C242.976 238.273 241.776 239.537 241.253 240.362C233.433 248.435 224.936 256.548 216.277 263.706C217.232 261.393 224.805 255.978 227.091 253.499L226.956 253.103C226.734 253.046 226.281 252.937 226.08 252.857C224.412 252.19 222.324 239.923 221.788 237.719C221.339 235.875 220.779 234.08 220.114 232.303C219.719 232.271 206.961 236.925 206.091 237.359L205.792 237.51L205.652 236.993C207.451 235.867 210.424 235.243 212.635 234.484C218.217 232.568 226.866 228.396 231.452 224.569C232.634 223.838 233.878 222.968 235.041 222.186Z"/><defs><linearGradient id="gradient_2" gradientUnits="userSpaceOnUse" x1="255.34023" y1="263.91776" x2="328.55215" y2="204.00627"><stop offset="0" stop-color="#0C4775"/><stop offset="1" stop-color="#1B69A3"/></linearGradient></defs><path fill="url(#gradient_2)" transform="matrix(1.632 0 0 1.632 -0.000488281 1.90735e-06)" d="M282.685 249.323C285.715 247.796 288.65 246.285 291.399 244.275C302.229 236.358 310.57 223.448 314.754 210.783C315.562 208.335 316.332 205.82 316.842 203.295C317.243 201.311 319.407 186.54 319.674 186.201C320.387 186.923 320.204 187.152 320.09 188.065C319.812 190.363 320.491 192.508 320.537 194.886C321.026 220.554 314.301 247.568 298.668 268.264C292.76 276.086 285.141 283.647 274.582 281.466C265.11 279.51 261.433 271.707 256.653 264.296L248.31 251.48L241.253 240.362C241.776 239.537 242.976 238.273 243.665 237.492C248.508 232.435 252.79 226.889 257.285 221.529C258.38 220.223 259.442 218.897 260.668 217.709C261.278 219.099 262.098 220.121 262.92 221.389C268.122 229.412 272.808 237.834 278.466 245.546C279.702 247.231 280.885 248.269 282.685 249.323Z"/><path fill="#0C3B62" transform="matrix(1.632 0 0 1.632 -0.000488281 1.90735e-06)" d="M283.282 350.21C286.935 338.164 290.983 326.176 294.731 314.158C294.994 313.317 295.491 312.409 296.065 311.742C298.039 310.894 303.088 311.241 305.45 311.281C306.119 313.621 306.94 315.931 307.671 318.254C310.944 328.658 314.224 339.032 317.684 349.375C319.221 342.72 321.97 334.586 323.707 327.785C324.516 324.62 327.314 314.441 328.438 311.914C329.596 310.827 340.042 311.198 340.786 311.75C341.093 313.616 338.149 322.101 337.405 324.57C336.479 328.413 334.907 333.098 333.763 336.957L328.334 355.686C327.173 359.66 325.458 364.904 324.798 368.892C322.393 368.818 314.593 369.409 312.943 368.312C312.104 367.753 301.567 336.247 300.636 332.667C299.047 338.761 296.671 345.29 294.57 351.263C292.537 357.043 290.465 363.247 288.248 368.927C284.911 369.135 279.582 368.948 276.239 368.746C275.039 361.555 259.255 313.278 259.723 311.335C262.306 311.556 269.121 311.277 272.25 311.31C274.648 317.622 276.487 325.474 278.282 332.001C279.946 338.05 281.716 344.146 283.282 350.21Z"/><defs><linearGradient id="gradient_3" gradientUnits="userSpaceOnUse" x1="319.50769" y1="122.15947" x2="274.92688" y2="181.02635"><stop offset="0" stop-color="#FFBF17"/><stop offset="1" stop-color="#FE941D"/></linearGradient></defs><path fill="url(#gradient_3)" transform="matrix(1.632 0 0 1.632 -0.000488281 1.90735e-06)" d="M297.455 105.093L298.249 105.273C300.257 106.785 304.893 130.58 308.661 137.145C314.705 147.677 342.638 148.129 344.8 151.823C344.768 153.076 343.86 153.743 342.719 154.118C333.878 157.021 321.163 158.311 313.316 163.185C305.653 167.944 303.77 183.541 301.342 191.653C300.617 194.076 300.187 197.483 298.598 199.621L298.09 199.685L297.348 199.025C293.274 190.389 292.955 179.126 288.541 170.35C283.026 159.386 266.91 158.977 256.5 155.525C254.247 154.777 251.192 155.01 249.187 153.48C248.714 152.519 248.79 153.007 248.923 151.966C249.192 151.568 249.41 151.242 249.901 151.103C259.177 148.473 268.938 146.964 277.994 143.579C290.583 138.872 291.485 126.115 294.529 114.873C295.379 111.736 295.843 107.91 297.455 105.093Z"/><path fill="#0C3B62" transform="matrix(1.632 0 0 1.632 -0.000488281 1.90735e-06)" d="M72.3904 311.356C75.864 311.275 80.0124 311.239 83.4517 311.412C85.3597 312.957 86.1954 314.54 87.6702 316.447C95.4394 326.492 103.019 336.827 111.033 346.666C110.698 338.7 111.019 330.704 111.245 322.741C111.35 319.024 111.654 315.111 110.918 311.458C114.418 311.354 120.53 311.061 123.856 311.655C124.06 314.131 123.957 318.152 123.96 320.764L123.965 337.335L123.969 356.618C123.969 360.306 124.081 364.704 123.848 368.349C122.417 369.276 113.654 369.488 112.258 368.099C111.152 366.999 109.2 364.277 108.166 362.931L100.537 353.119L90.3622 339.944C88.4161 337.462 86.4111 335.231 84.5999 332.645C84.8656 335.241 84.9494 337.254 84.9055 339.85L84.9273 356.09C84.94 359.53 85.0646 363.475 84.7416 366.87C84.8007 367.476 84.7537 367.472 84.5492 368.058C82.9407 369.554 75.505 368.929 72.8106 368.98C72.5046 365.332 72.7379 358.608 72.7431 354.676L72.7691 326.213C72.7711 321.609 72.965 315.83 72.3904 311.356Z"/><path fill="#05243D" transform="matrix(1.632 0 0 1.632 -0.000488281 1.90735e-06)" d="M84.7416 366.87C83.9194 364.967 84.0562 352.424 84.2142 349.811L84.2522 352.43C84.639 348.383 83.8933 343.862 84.9055 339.85L84.9273 356.09C84.94 359.53 85.0646 363.475 84.7416 366.87Z"/><path fill="#0C3B62" transform="matrix(1.632 0 0 1.632 -0.000488281 1.90735e-06)" d="M384.243 310.781C387.682 310.925 391.956 310.777 395.528 310.822C396.041 318.012 395.237 325.372 395.652 331.763C396.064 331.834 397.213 330.595 397.627 330.196C403.701 324.228 413.065 323.715 419.905 328.689C429.454 335.632 430.205 354.577 423.599 363.535C415.838 371.802 403.651 372.88 395.563 364.421C395.582 365.866 395.805 367.15 395.092 368.318C393.945 369.241 385.447 369.328 384.063 368.364C383.834 366.024 383.946 362.426 383.945 359.982L383.94 345.749L383.929 322.405C383.926 320.177 383.608 312.304 384.243 310.781ZM406.463 360.172C421.347 358.055 419.275 334.985 406.229 335.101C393.964 335.919 391.868 353.514 401.651 359.096C403.301 360.038 404.613 360.062 406.463 360.172Z"/><path fill="#0C3B62" transform="matrix(1.632 0 0 1.632 -0.000488281 1.90735e-06)" d="M148.814 325.429C161.168 323.958 172.374 332.779 173.846 345.132C175.318 357.486 166.497 368.693 154.144 370.165C141.79 371.638 130.582 362.816 129.11 350.462C127.638 338.108 136.46 326.9 148.814 325.429ZM154.016 360.207C156.699 359.274 159.627 357.312 160.643 354.601C164.252 344.972 161.082 334.302 149.014 335.298C147.821 335.783 146.608 336.254 145.56 337.01C138.801 341.892 139.175 356.696 147.667 359.643C149.677 360.34 151.871 360.29 154.016 360.207Z"/><path fill="#0C3B62" transform="matrix(1.632 0 0 1.632 -0.000488281 1.90735e-06)" d="M237.882 325.379C239.556 325.091 242.521 326.016 244.104 326.281C258.819 328.743 258.593 340.419 258.28 352.52C258.154 357.409 258.198 363.822 258.357 368.95C256.254 368.983 248.945 369.347 247.67 368.356C247.149 367.368 247.35 366.511 247.324 365.332C246.052 365.606 243.228 368.172 241.369 368.789C233.661 371.348 222.575 371.042 219.522 361.907C216.695 348.271 226.195 343.01 238.477 342.701C241.337 342.629 244.369 343.098 247.203 342.757C246.077 338.231 244.099 335.442 239.063 335.039C234.007 334.634 231.043 337.247 227.49 340.271C224.739 339.191 216.921 335.206 220.754 331.346C224.742 327.329 232.458 325.767 237.882 325.379ZM231.794 359.918C232.979 360.504 234.332 361.241 235.574 361.634C242.561 362.556 246.898 357.986 247.046 351.168C245.664 351.02 244.581 350.906 243.187 350.875C237.013 351.041 228.086 350.954 231.794 359.918Z"/><path fill="#0C3B62" transform="matrix(1.632 0 0 1.632 -0.000488281 1.90735e-06)" d="M356.642 325.3C358.016 325.135 359.821 325.145 361.201 325.32C373.763 326.906 380.673 338.125 378.929 350.404C376.396 351.061 352.971 351.018 349.184 350.985C351.96 357.802 356.015 363.829 364.877 360.684C366.921 359.959 368.674 358.451 370.722 357.739C371.529 357.458 371.979 357.885 372.631 358.244C374.667 360.39 375.341 361.248 376.774 363.831C366.263 375.347 341.4 370.993 338.702 354.017C336.373 339.367 341.552 328.307 356.642 325.3ZM349.174 343.263L358.938 343.246C362.281 343.175 364.562 343.113 367.9 342.556C366.404 337.643 364.282 332.929 358.121 333.754C351.996 335.544 351.216 337.744 349.174 343.263Z"/><path fill="#0C3B62" transform="matrix(1.632 0 0 1.632 -0.000488281 1.90735e-06)" d="M207.149 325.957C210.048 325.716 215.899 325.858 219.035 325.844C218.116 329.791 213.597 340.529 211.883 344.811C210.977 347.889 203.638 366.493 202.082 368.812C199.549 369.16 192.673 369.147 190.274 368.615C187.366 365.035 178.986 340.152 176.775 334.921C175.779 332.564 174.663 328.163 172.995 325.926C176.424 325.963 179.871 325.913 183.302 325.882C183.654 325.874 185.135 326.037 185.561 326.076C186.957 330.128 189.205 335.162 190.854 339.261C192.122 342.413 194.611 349.002 196.218 351.539C199.782 345.011 202.249 336.363 205.458 329.561C206.072 328.26 206.36 327.25 207.149 325.957Z"/></svg>